# xmcd CD database file
#
# Track frame offsets:
#	150
#	13793
#	23564
#	37818
#	50508
#	60822
#	72335
#	84870
#	96410
#	108822
#	121376
#	132933
#	144798
#	157091
#	168524
#	181233
#	192839
#	205403
#	218319
#	230340
#	242547
#	254448
#	266709
#	279610
#
# Disc length: 3888 seconds
#
# Revision: 1
# Processed by: cddbd v1.5.1PL0 Copyright (c) Steve Scherf et al.
# Submitted via: CDex 1.60beta1
#
DISCID=410f2e18
DTITLE=Lightnin' Hopkins - Lightnin' Strikes
DYEAR=2000
DGENRE=Blues
TTITLE0=Katie Mae Blues
TTITLE1=Feel So Bad
TTITLE2=That Mean Old Twister
TTITLE3=Rocky Mountain Blues
TTITLE4=Down Baby
TTITLE5=Let Me Play With Your Poodle
TTITLE6=Short Haired Woman
TTITLE7=Big Mama Jump
TTITLE8=Ida Mae
TTITLE9=Shining Moon
TTITLE10=Mercy
TTITLE11=What Can It Be
TTITLE12=Lonesome Home
TTITLE13=Appetite Blues
TTITLE14=Walking Blues
TTITLE15=Lightning Blues
TTITLE16=No Mail Blues
TTITLE17=Ain't It a Shame
TTITLE18=Tim Moore's Farm
TTITLE19=You Don't Know
TTITLE20=Treat Me Kind
TTITLE21=Somebody's Got To Go
TTITLE22=Baby Pleease Don't Go
TTITLE23=Death Bells
EXTD=YEAR: 2000
EXTT0=
EXTT1=
EXTT2=
EXTT3=
EXTT4=
EXTT5=
EXTT6=
EXTT7=
EXTT8=
EXTT9=
EXTT10=
EXTT11=
EXTT12=
EXTT13=
EXTT14=
EXTT15=
EXTT16=
EXTT17=
EXTT18=
EXTT19=
EXTT20=
EXTT21=
EXTT22=
EXTT23=
PLAYORDER=
